<?xml version="1.0" standalone="no"?><!DOCTYPE svg PUBLIC "-//W3C//DTD SVG 1.1//EN" "http://www.w3.org/Graphics/SVG/1.1/DTD/svg11.dtd"><svg t="1715148152521" class="icon" viewBox="0 0 1024 1024" version="1.1" xmlns="http://www.w3.org/2000/svg" p-id="11938" xmlns:xlink="http://www.w3.org/1999/xlink" width="768" height="768"><path d="M597.333333 512a85.333333 85.333333 0 1 0-170.666666 0H0v-106.666667C0 263.957333 114.624 149.333333 256 149.333333h512c141.376 0 256 114.624 256 256v106.666667H597.333333z" fill="#CDE6FB" p-id="11939"></path><path d="M655.146667 469.333333H938.666667v85.333334H655.146667a149.397333 149.397333 0 0 1-286.293334 0H85.333333v-85.333334h283.52a149.397333 149.397333 0 0 1 286.293334 0zM512 576a64 64 0 1 0 0-128 64 64 0 0 0 0 128z" fill="#0780ED" p-id="11940"></path><path d="M832 157.397333c110.421333 28.416 192 128.64 192 247.936v362.666667c0 141.376-114.624 256-256 256H256C114.624 1024 0 909.376 0 768V405.333333C0 286.037333 81.578667 185.813333 192 157.397333V128a128 128 0 0 1 128-128h384a128 128 0 0 1 128 128v29.397333zM768 234.666667H256a170.666667 170.666667 0 0 0-170.666667 170.666666v362.666667a170.666667 170.666667 0 0 0 170.666667 170.666667h512a170.666667 170.666667 0 0 0 170.666667-170.666667V405.333333a170.666667 170.666667 0 0 0-170.666667-170.666666z m-21.333333-85.333334V128a42.666667 42.666667 0 0 0-42.666667-42.666667H320a42.666667 42.666667 0 0 0-42.666667 42.666667v21.333333h469.333334z" fill="#333333" p-id="11941"></path></svg>