<?xml version="1.0" standalone="no"?><!DOCTYPE svg PUBLIC "-//W3C//DTD SVG 1.1//EN" "http://www.w3.org/Graphics/SVG/1.1/DTD/svg11.dtd"><svg t="1715148008162" class="icon" viewBox="0 0 1092 1024" version="1.1" xmlns="http://www.w3.org/2000/svg" p-id="5011" xmlns:xlink="http://www.w3.org/1999/xlink" width="819" height="768"><path d="M999.287467 302.148267a46.421333 46.421333 0 1 0 92.9792 0 46.421333 46.421333 0 0 0-92.9792 0zM278.869333 46.421333a23.210667 23.210667 0 1 0 46.4896 0 23.210667 23.210667 0 0 0-46.421333 0zM0 708.8128a290.474667 290.474667 0 1 0 580.949333 0 290.474667 290.474667 0 0 0-580.949333 0z" fill="#00BD82" opacity=".5" p-id="5012"></path><path d="M236.885333 952.797867a190.532267 190.532267 0 0 1-134.690133-325.2224l123.0848-122.88A394.717867 394.717867 0 0 1 752.981333 29.0816a26.965333 26.965333 0 0 1 8.8064 43.895467L540.672 294.229333a116.189867 116.189867 0 0 0 164.2496 164.317867l221.047467-221.252267a27.306667 27.306667 0 0 1 24.507733-7.236266c8.874667 1.706667 16.247467 7.850667 19.524267 16.247466a394.0352 394.0352 0 0 1-86.698667 428.032l-19.0464-19.114666 19.0464 19.114666a392.260267 392.260267 0 0 1-388.778667 99.7376l-123.0848 123.016534a189.303467 189.303467 0 0 1-134.621866 55.7056zM604.023467 53.725867a340.309333 340.309333 0 0 0-240.981334 100.215466 339.012267 339.012267 0 0 0-81.578666 350.071467 27.170133 27.170133 0 0 1-7.236267 28.398933l-2.4576 2.048-1.365333 1.297067-130.116267 130.048a136.669867 136.669867 0 0 0 193.194667 193.194667l133.393066-133.9392a27.170133 27.170133 0 0 1 28.398934-7.236267 338.875733 338.875733 0 0 0 350.0032-81.578667 340.241067 340.241067 0 0 0 88.132266-330.001066l-190.327466 190.395733c-66.423467 66.218667-173.943467 66.218667-240.4352 0a170.325333 170.325333 0 0 1 0-240.503467L693.0432 65.604267A340.309333 340.309333 0 0 0 604.023467 53.794133z" fill="#363290" p-id="5013"></path></svg>